<svg width="23" height="16" viewBox="0 0 23 16" fill="none" xmlns="http://www.w3.org/2000/svg">
<path d="M20.4614 0H2.12681C0.9534 0 0 0.983452 0 2.19385V13.8061C0 15.0165 0.9534 16 2.12681 16H20.4614C21.6348 16 22.5882 15.0165 22.5882 13.8061V2.19385C22.5882 0.983452 21.6348 0 20.4614 0ZM20.4614 1.32388C20.6448 1.32388 20.7914 1.3617 20.9381 1.47518L11.8075 7.18676C11.4775 7.37589 11.1108 7.37589 10.7807 7.18676L1.65011 1.47518C1.79679 1.39953 1.94347 1.32388 2.12681 1.32388H20.4614ZM20.4614 14.6383H2.12681C1.68678 14.6383 1.28342 14.26 1.28342 13.7683V2.79905L10.084 8.32151C10.4507 8.54846 10.8541 8.66194 11.2574 8.66194C11.6608 8.66194 12.0642 8.54846 12.4309 8.32151L21.2315 2.79905V13.7683C21.3048 14.26 20.9015 14.6383 20.4614 14.6383Z" fill="#94A3B8"/>
</svg>
