<svg width="32" height="32" viewBox="0 0 32 32" fill="none" xmlns="http://www.w3.org/2000/svg">
<path d="M0 16C0 7.16344 7.16344 0 16 0C24.8366 0 32 7.16344 32 16C32 24.8366 24.8366 32 16 32C7.16344 32 0 24.8366 0 16Z" fill="#BF1901"/>
<path d="M19.439 14.6H18.1992H17.7564V14.1484V12.7484V12.2968H18.1992H19.1291C19.3726 12.2968 19.5719 12.1161 19.5719 11.8452V9.45161C19.5719 9.20323 19.3947 9 19.1291 9H17.5128C15.7638 9 14.5461 10.2645 14.5461 12.1387V14.1032V14.5548H14.1033H12.5978C12.2878 14.5548 12 14.8032 12 15.1645V16.7903C12 17.1065 12.2435 17.4 12.5978 17.4H14.059H14.5018V17.8516V22.3903C14.5018 22.7065 14.7454 23 15.0996 23H17.1807C17.3136 23 17.4243 22.9323 17.5128 22.8419C17.6014 22.7516 17.6678 22.5935 17.6678 22.4581V17.8742V17.4226H18.1328H19.1291C19.4169 17.4226 19.6383 17.2419 19.6826 16.971V16.9484V16.9258L19.9925 15.3677C20.0147 15.2097 19.9925 15.029 19.8597 14.8484C19.8154 14.7355 19.6161 14.6226 19.439 14.6Z" fill="white"/>
</svg>
