<svg width="33" height="34" viewBox="0 0 33 34" fill="none" xmlns="http://www.w3.org/2000/svg">
<path d="M16.6585 32.8861C25.4322 32.8861 32.5447 25.7736 32.5447 16.9999C32.5447 8.22624 25.4322 1.11377 16.6585 1.11377C7.88481 1.11377 0.772339 8.22624 0.772339 16.9999C0.772339 25.7736 7.88481 32.8861 16.6585 32.8861Z" fill="white" stroke="#E7E7E7" stroke-width="0.5"/>
<path d="M21.9335 11.1138H11.6473C11.1612 11.1138 10.7723 11.5009 10.7723 11.9847V22.2428C10.7723 22.7073 11.1612 23.1138 11.6473 23.1138H21.8946C22.3808 23.1138 22.7697 22.7267 22.7697 22.2428V11.9654C22.8085 11.5009 22.4197 11.1138 21.9335 11.1138ZM14.3307 21.3138H12.5612V15.6041H14.3307V21.3138ZM13.4362 14.8105C12.8529 14.8105 12.4057 14.346 12.4057 13.7847C12.4057 13.2234 12.8724 12.7589 13.4362 12.7589C14.0001 12.7589 14.4668 13.2234 14.4668 13.7847C14.4668 14.346 14.039 14.8105 13.4362 14.8105ZM21.0391 21.3138H19.2696V18.546C19.2696 17.888 19.2502 17.017 18.3363 17.017C17.4029 17.017 17.2668 17.7525 17.2668 18.488V21.3138H15.4974V15.6041H17.2279V16.3976H17.2474C17.5002 15.9331 18.0641 15.4686 18.9391 15.4686C20.7474 15.4686 21.078 16.6299 21.078 18.217V21.3138H21.0391Z" fill="#637381"/>
</svg>
