<svg width="34" height="34" viewBox="0 0 34 34" fill="none" xmlns="http://www.w3.org/2000/svg">
<path fill-rule="evenodd" clip-rule="evenodd" d="M1 17C1 8.16344 8.16344 1 17 1C25.8366 1 33 8.16344 33 17C33 25.8366 25.8366 33 17 33C8.16344 33 1 25.8366 1 17Z" fill="white" stroke="#E7E7E7" stroke-width="0.5"/>
<path d="M22.4419 13.7221L23.3 12.7828C23.5484 12.5284 23.6161 12.3327 23.6387 12.2348C22.9613 12.5871 22.329 12.7045 21.9226 12.7045H21.7645L21.6742 12.6262C21.1323 12.2153 20.4548 12 19.7323 12C18.1516 12 16.9097 13.135 16.9097 14.4462C16.9097 14.5245 16.9097 14.6419 16.9323 14.7202L17 15.1115L16.5258 15.092C13.6355 15.0137 11.2645 12.8611 10.8806 12.4892C10.2484 13.4677 10.6097 14.407 10.9935 14.9941L11.7613 16.09L10.5419 15.5029C10.5645 16.3249 10.9258 16.9706 11.6258 17.4403L12.2355 17.8317L11.6258 18.047C12.0097 19.045 12.8677 19.456 13.5 19.6125L14.3355 19.8082L13.5452 20.2779C12.2806 21.0607 10.7 21.002 10 20.9432C11.4226 21.8043 13.1161 22 14.2903 22C15.171 22 15.8258 21.9217 15.9839 21.863C22.3065 20.5714 22.6 15.6791 22.6 14.7006V14.5636L22.7355 14.4853C23.5032 13.8591 23.8194 13.5264 24 13.3307C23.9323 13.3503 23.8419 13.3894 23.7516 13.409L22.4419 13.7221Z" fill="#637381"/>
</svg>
