<svg width="34" height="34" viewBox="0 0 34 34" fill="none" xmlns="http://www.w3.org/2000/svg">
<path d="M16.8862 32.8861C25.6598 32.8861 32.7723 25.7736 32.7723 16.9999C32.7723 8.22624 25.6598 1.11377 16.8862 1.11377C8.11248 1.11377 1 8.22624 1 16.9999C1 25.7736 8.11248 32.8861 16.8862 32.8861Z" fill="white" stroke="#E7E7E7" stroke-width="0.5"/>
<path d="M23.7065 13.6806C23.5484 13.0585 23.0742 12.5746 22.4645 12.4133C21.3806 12.1138 17 12.1138 17 12.1138C17 12.1138 12.6194 12.1138 11.5355 12.4133C10.9258 12.5746 10.4516 13.0585 10.2935 13.6806C10 14.8096 10 17.1138 10 17.1138C10 17.1138 10 19.441 10.2935 20.5469C10.4516 21.1691 10.9258 21.6529 11.5355 21.8142C12.6194 22.1138 17 22.1138 17 22.1138C17 22.1138 21.3806 22.1138 22.4645 21.8142C23.0742 21.6529 23.5484 21.1691 23.7065 20.5469C24 19.441 24 17.1138 24 17.1138C24 17.1138 24 14.8096 23.7065 13.6806ZM15.6 19.2566V14.9709L19.2355 17.1138L15.6 19.2566Z" fill="#637381"/>
</svg>
