<svg width="940" height="320" viewBox="0 0 940 320" fill="none" xmlns="http://www.w3.org/2000/svg">
<path d="M61.3279 165.234V179H58.679L53.3604 170.323L52.0255 167.883H52.0046L52.0881 170.115V179H50.044V165.234H52.6721L57.9699 173.89L59.3256 176.372H59.3464L59.263 174.119V165.234H61.3279Z" fill="#C6C6C6"/>
<path d="M70.1783 165.025C71.5132 165.025 72.6673 165.311 73.6406 165.881C74.614 166.451 75.3648 167.264 75.8932 168.321C76.4216 169.378 76.6858 170.643 76.6858 172.117C76.6858 173.591 76.4216 174.856 75.8932 175.913C75.3648 176.97 74.614 177.783 73.6406 178.353C72.6673 178.923 71.5132 179.209 70.1783 179.209C68.8573 179.209 67.7102 178.923 66.7368 178.353C65.7635 177.783 65.0126 176.97 64.4842 175.913C63.9558 174.856 63.6916 173.591 63.6916 172.117C63.6916 170.643 63.9558 169.378 64.4842 168.321C65.0126 167.264 65.7635 166.451 66.7368 165.881C67.7102 165.311 68.8573 165.025 70.1783 165.025ZM70.1783 166.965C69.3162 166.965 68.5723 167.167 67.9466 167.57C67.3347 167.973 66.862 168.557 66.5282 169.322C66.1945 170.087 66.0277 171.019 66.0277 172.117C66.0277 173.202 66.1945 174.133 66.5282 174.912C66.862 175.677 67.3347 176.261 67.9466 176.664C68.5723 177.067 69.3162 177.269 70.1783 177.269C71.0543 177.269 71.7982 177.067 72.41 176.664C73.0358 176.261 73.5155 175.677 73.8492 174.912C74.1829 174.133 74.3498 173.202 74.3498 172.117C74.3498 171.019 74.1829 170.087 73.8492 169.322C73.5155 168.557 73.0358 167.973 72.41 167.57C71.7982 167.167 71.0543 166.965 70.1783 166.965Z" fill="#C6C6C6"/>
<path d="M88.8182 165.234V167.153H84.1044V179H81.8726V167.153H77.1589V165.234H88.8182Z" fill="#C6C6C6"/>
<path d="M100.58 165.025C101.818 165.025 102.888 165.262 103.792 165.735C104.696 166.193 105.461 166.875 106.086 167.779L104.585 169.218C104.056 168.411 103.458 167.834 102.791 167.487C102.137 167.125 101.359 166.944 100.455 166.944C99.7875 166.944 99.2383 167.035 98.8072 167.216C98.3762 167.396 98.0564 167.64 97.8478 167.946C97.6531 168.238 97.5558 168.571 97.5558 168.947C97.5558 169.378 97.7018 169.753 97.9938 170.073C98.2997 170.393 98.8629 170.643 99.6833 170.824L102.478 171.45C103.813 171.742 104.759 172.187 105.315 172.784C105.871 173.382 106.149 174.14 106.149 175.058C106.149 175.906 105.92 176.643 105.461 177.269C105.002 177.895 104.362 178.374 103.542 178.708C102.735 179.042 101.783 179.209 100.684 179.209C99.7111 179.209 98.8351 179.083 98.0564 178.833C97.2777 178.583 96.5964 178.242 96.0123 177.811C95.4283 177.38 94.9486 176.886 94.5732 176.33L96.1166 174.787C96.4086 175.273 96.7771 175.711 97.2221 176.101C97.667 176.476 98.1815 176.768 98.7655 176.977C99.3634 177.185 100.024 177.29 100.747 177.29C101.387 177.29 101.936 177.213 102.395 177.06C102.867 176.907 103.222 176.685 103.458 176.393C103.709 176.087 103.834 175.725 103.834 175.308C103.834 174.905 103.695 174.55 103.417 174.244C103.153 173.939 102.652 173.702 101.915 173.535L98.8907 172.847C98.0564 172.666 97.3681 172.409 96.8258 172.075C96.2835 171.742 95.8802 171.338 95.6161 170.866C95.3519 170.379 95.2198 169.837 95.2198 169.239C95.2198 168.46 95.4283 167.758 95.8455 167.132C96.2765 166.492 96.8953 165.985 97.7018 165.609C98.5083 165.22 99.4677 165.025 100.58 165.025Z" fill="#C6C6C6"/>
<path d="M119.302 165.234V173.723C119.302 175.545 118.822 176.914 117.863 177.832C116.903 178.75 115.506 179.209 113.67 179.209C111.863 179.209 110.472 178.75 109.499 177.832C108.539 176.914 108.06 175.545 108.06 173.723V165.234H110.291V173.452C110.291 174.745 110.569 175.704 111.126 176.33C111.682 176.956 112.53 177.269 113.67 177.269C114.824 177.269 115.68 176.956 116.236 176.33C116.792 175.704 117.07 174.745 117.07 173.452V165.234H119.302Z" fill="#C6C6C6"/>
<path d="M127.79 165.234C129.264 165.234 130.432 165.603 131.294 166.34C132.171 167.076 132.609 168.071 132.609 169.322C132.609 170.615 132.171 171.616 131.294 172.326C130.432 173.021 129.264 173.368 127.79 173.368L127.582 173.494H124.391V179H122.18V165.234H127.79ZM127.624 171.637C128.527 171.637 129.195 171.457 129.626 171.095C130.071 170.72 130.293 170.149 130.293 169.385C130.293 168.634 130.071 168.071 129.626 167.695C129.195 167.32 128.527 167.132 127.624 167.132H124.391V171.637H127.624ZM128.938 172.096L133.422 179H130.856L127.019 172.972L128.938 172.096Z" fill="#C6C6C6"/>
<path d="M135.255 179V165.234H145.225V167.153H137.487V171.116H143.535V172.993H137.487V177.081H145.517V179H135.255Z" fill="#C6C6C6"/>
<path d="M164.704 165.234V179H162.452V165.234H164.704ZM155.652 165.234V179H153.42V165.234H155.652ZM163.578 171.074V172.993H154.547V171.074H163.578Z" fill="#C6C6C6"/>
<path d="M173.555 165.025C174.889 165.025 176.044 165.311 177.017 165.881C177.99 166.451 178.741 167.264 179.27 168.321C179.798 169.378 180.062 170.643 180.062 172.117C180.062 173.591 179.798 174.856 179.27 175.913C178.741 176.97 177.99 177.783 177.017 178.353C176.044 178.923 174.889 179.209 173.555 179.209C172.234 179.209 171.086 178.923 170.113 178.353C169.14 177.783 168.389 176.97 167.861 175.913C167.332 174.856 167.068 173.591 167.068 172.117C167.068 170.643 167.332 169.378 167.861 168.321C168.389 167.264 169.14 166.451 170.113 165.881C171.086 165.311 172.234 165.025 173.555 165.025ZM173.555 166.965C172.692 166.965 171.949 167.167 171.323 167.57C170.711 167.973 170.238 168.557 169.905 169.322C169.571 170.087 169.404 171.019 169.404 172.117C169.404 173.202 169.571 174.133 169.905 174.912C170.238 175.677 170.711 176.261 171.323 176.664C171.949 177.067 172.692 177.269 173.555 177.269C174.431 177.269 175.175 177.067 175.786 176.664C176.412 176.261 176.892 175.677 177.225 174.912C177.559 174.133 177.726 173.202 177.726 172.117C177.726 171.019 177.559 170.087 177.225 169.322C176.892 168.557 176.412 167.973 175.786 167.57C175.175 167.167 174.431 166.965 173.555 166.965Z" fill="#C6C6C6"/>
<path d="M184.825 179L180.779 165.234H183.135L186.222 177.06L189.226 165.234H191.52L194.544 177.081L197.611 165.234H199.884L195.859 179H193.23L191.04 170.74L190.352 167.57H190.331L189.643 170.74L187.474 179H184.825Z" fill="#C6C6C6"/>
<path d="M221.021 165.234V179H218.956V171.032L219.123 167.236H219.102L214.91 179H213.054L208.861 167.236H208.84L209.007 171.032V179H206.942V165.234H210.259L213.033 173.202L213.992 176.476H214.034L215.014 173.202L217.767 165.234H221.021Z" fill="#C6C6C6"/>
<path d="M235.603 179H233.246L231.932 175.392H226.154L224.84 179H222.546L227.739 165.234H230.409L235.603 179ZM226.78 173.577H231.306L229.053 167.153L226.78 173.577Z" fill="#C6C6C6"/>
<path d="M248.389 165.234V179H245.74L240.421 170.323L239.087 167.883H239.066L239.149 170.115V179H237.105V165.234H239.733L245.031 173.89L246.387 176.372H246.408L246.324 174.119V165.234H248.389Z" fill="#C6C6C6"/>
<path d="M261.745 165.234L256.822 173.723V179H254.59V173.723L249.689 165.234H252.171L254.632 169.677L255.717 171.721L256.801 169.677L259.242 165.234H261.745Z" fill="#C6C6C6"/>
<path d="M277.813 165.234V167.153H273.099V179H270.867V167.153H266.153V165.234H277.813Z" fill="#C6C6C6"/>
<path d="M281.778 165.234V179H279.547V165.234H281.778Z" fill="#C6C6C6"/>
<path d="M287.154 177.081H294.746V179H284.922V165.234H287.154V177.081Z" fill="#C6C6C6"/>
<path d="M296.47 179V165.234H306.44V167.153H298.701V171.116H304.75V172.993H298.701V177.081H306.732V179H296.47Z" fill="#C6C6C6"/>
<path d="M313.484 165.025C314.722 165.025 315.792 165.262 316.696 165.735C317.6 166.193 318.365 166.875 318.99 167.779L317.489 169.218C316.96 168.411 316.362 167.834 315.695 167.487C315.041 167.125 314.263 166.944 313.359 166.944C312.691 166.944 312.142 167.035 311.711 167.216C311.28 167.396 310.96 167.64 310.752 167.946C310.557 168.238 310.46 168.571 310.46 168.947C310.46 169.378 310.606 169.753 310.898 170.073C311.204 170.393 311.767 170.643 312.587 170.824L315.382 171.45C316.717 171.742 317.662 172.187 318.219 172.784C318.775 173.382 319.053 174.14 319.053 175.058C319.053 175.906 318.824 176.643 318.365 177.269C317.906 177.895 317.266 178.374 316.446 178.708C315.639 179.042 314.687 179.209 313.588 179.209C312.615 179.209 311.739 179.083 310.96 178.833C310.182 178.583 309.5 178.242 308.916 177.811C308.332 177.38 307.853 176.886 307.477 176.33L309.021 174.787C309.313 175.273 309.681 175.711 310.126 176.101C310.571 176.476 311.085 176.768 311.669 176.977C312.267 177.185 312.928 177.29 313.651 177.29C314.291 177.29 314.84 177.213 315.299 177.06C315.771 176.907 316.126 176.685 316.362 176.393C316.613 176.087 316.738 175.725 316.738 175.308C316.738 174.905 316.599 174.55 316.321 174.244C316.056 173.939 315.556 173.702 314.819 173.535L311.795 172.847C310.96 172.666 310.272 172.409 309.73 172.075C309.187 171.742 308.784 171.338 308.52 170.866C308.256 170.379 308.124 169.837 308.124 169.239C308.124 168.46 308.332 167.758 308.749 167.132C309.18 166.492 309.799 165.985 310.606 165.609C311.412 165.22 312.372 165.025 313.484 165.025Z" fill="#C6C6C6"/>
<path d="M336.505 165.234L331.582 173.723V179H329.351V173.723L324.449 165.234H326.931L329.392 169.677L330.477 171.721L331.561 169.677L334.002 165.234H336.505Z" fill="#C6C6C6"/>
<path d="M342.936 165.025C344.271 165.025 345.425 165.311 346.398 165.881C347.371 166.451 348.122 167.264 348.651 168.321C349.179 169.378 349.443 170.643 349.443 172.117C349.443 173.591 349.179 174.856 348.651 175.913C348.122 176.97 347.371 177.783 346.398 178.353C345.425 178.923 344.271 179.209 342.936 179.209C341.615 179.209 340.468 178.923 339.494 178.353C338.521 177.783 337.77 176.97 337.242 175.913C336.713 174.856 336.449 173.591 336.449 172.117C336.449 170.643 336.713 169.378 337.242 168.321C337.77 167.264 338.521 166.451 339.494 165.881C340.468 165.311 341.615 165.025 342.936 165.025ZM342.936 166.965C342.074 166.965 341.33 167.167 340.704 167.57C340.092 167.973 339.619 168.557 339.286 169.322C338.952 170.087 338.785 171.019 338.785 172.117C338.785 173.202 338.952 174.133 339.286 174.912C339.619 175.677 340.092 176.261 340.704 176.664C341.33 177.067 342.074 177.269 342.936 177.269C343.812 177.269 344.556 177.067 345.167 176.664C345.793 176.261 346.273 175.677 346.607 174.912C346.94 174.133 347.107 173.202 347.107 172.117C347.107 171.019 346.94 170.087 346.607 169.322C346.273 168.557 345.793 167.973 345.167 167.57C344.556 167.167 343.812 166.965 342.936 166.965Z" fill="#C6C6C6"/>
<path d="M362.794 165.234V173.723C362.794 175.545 362.315 176.914 361.355 177.832C360.396 178.75 358.998 179.209 357.163 179.209C355.355 179.209 353.965 178.75 352.991 177.832C352.032 176.914 351.552 175.545 351.552 173.723V165.234H353.784V173.452C353.784 174.745 354.062 175.704 354.618 176.33C355.175 176.956 356.023 177.269 357.163 177.269C358.317 177.269 359.172 176.956 359.728 176.33C360.285 175.704 360.563 174.745 360.563 173.452V165.234H362.794Z" fill="#C6C6C6"/>
<path d="M382.8 165.234V179H380.152L374.833 170.323L373.498 167.883H373.477L373.561 170.115V179H371.517V165.234H374.145L379.442 173.89L380.798 176.372H380.819L380.736 174.119V165.234H382.8Z" fill="#C6C6C6"/>
<path d="M385.936 179V165.234H395.906V167.153H388.168V171.116H394.216V172.993H388.168V177.081H396.198V179H385.936Z" fill="#C6C6C6"/>
<path d="M398.257 179V165.234H408.227V167.153H400.489V171.116H406.538V172.993H400.489V177.081H408.519V179H398.257Z" fill="#C6C6C6"/>
<path d="M415.438 165.234C417.594 165.234 419.269 165.832 420.465 167.028C421.675 168.21 422.28 169.906 422.28 172.117C422.28 174.328 421.675 176.031 420.465 177.227C419.269 178.409 417.594 179 415.438 179H410.579V165.234H415.438ZM415.438 177.102C416.898 177.102 418.011 176.671 418.776 175.809C419.554 174.933 419.944 173.702 419.944 172.117C419.944 170.532 419.554 169.308 418.776 168.446C418.011 167.57 416.898 167.132 415.438 167.132H412.81V177.102H415.438Z" fill="#C6C6C6"/>
<path d="M428.51 165.025C429.47 165.025 430.304 165.171 431.013 165.463C431.736 165.755 432.299 166.18 432.703 166.736C433.12 167.278 433.328 167.946 433.328 168.738C433.328 169.558 433.148 170.24 432.786 170.782C432.439 171.311 431.966 171.714 431.368 171.992C430.77 172.256 430.109 172.43 429.386 172.513L429.324 174.62H427.175V171.47C428.163 171.345 428.927 171.178 429.47 170.97C430.012 170.761 430.394 170.504 430.617 170.198C430.839 169.878 430.951 169.496 430.951 169.051C430.951 168.62 430.853 168.251 430.659 167.946C430.478 167.626 430.193 167.389 429.803 167.236C429.428 167.07 428.948 166.986 428.364 166.986C427.544 166.986 426.877 167.216 426.362 167.674C425.848 168.133 425.542 168.773 425.444 169.593L423.379 168.655C423.532 167.932 423.831 167.299 424.276 166.757C424.721 166.214 425.298 165.79 426.007 165.484C426.717 165.178 427.551 165.025 428.51 165.025ZM428.239 176.247C428.712 176.247 429.087 176.386 429.366 176.664C429.658 176.928 429.803 177.283 429.803 177.728C429.803 178.173 429.658 178.527 429.366 178.791C429.087 179.056 428.712 179.188 428.239 179.188C427.78 179.188 427.405 179.056 427.113 178.791C426.835 178.527 426.696 178.173 426.696 177.728C426.696 177.283 426.835 176.928 427.113 176.664C427.405 176.386 427.78 176.247 428.239 176.247Z" fill="#C6C6C6"/>
<path d="M83.7572 59.8429H62.9497V68.3856H79.5469V76.5011H62.9497V92H52.4544V51.7274H83.7572V59.8429Z" fill="white"/>
<path d="M122.469 80.4674C121.696 83.2742 120.455 85.593 118.747 87.4235C117.038 89.2134 115.004 90.5355 112.645 91.3898C110.286 92.2034 107.682 92.6102 104.835 92.6102C100.767 92.6102 97.2478 91.7966 94.2782 90.1694C91.3086 88.5015 89.0306 86.1218 87.4441 83.0302C85.8576 79.9385 85.0643 76.2164 85.0643 71.8637C85.0643 67.511 85.8576 63.7888 87.4441 60.6972C89.0306 57.6055 91.3086 55.2461 94.2782 53.619C97.2478 51.9511 100.746 51.1172 104.773 51.1172C107.58 51.1172 110.163 51.524 112.523 52.3376C114.882 53.1105 116.876 54.3105 118.503 55.9377C120.13 57.5649 121.289 59.6599 121.981 62.2227L112.767 65.9448C112.197 63.4227 111.262 61.6938 109.96 60.7582C108.699 59.8226 107.092 59.3548 105.14 59.3548C103.228 59.3548 101.56 59.8226 100.136 60.7582C98.7529 61.6938 97.6749 63.0973 96.902 64.9685C96.1698 66.7991 95.8037 69.0975 95.8037 71.8637C95.8037 74.5892 96.1495 76.8876 96.841 78.7588C97.5326 80.6301 98.5699 82.0335 99.953 82.9691C101.377 83.9048 103.126 84.3726 105.201 84.3726C107.153 84.3726 108.801 83.8438 110.143 82.7861C111.526 81.6877 112.462 80.0199 112.95 77.7825L122.469 80.4674Z" fill="white"/>
<path d="M173.067 51.7274V59.8429H159.948V92H149.453V59.8429H136.273V51.7274H173.067Z" fill="white"/>
<path d="M186.816 51.7274V92H176.321V51.7274H186.816Z" fill="white"/>
<path d="M203.496 83.8844H223.693V92H193.001V51.7274H203.496V83.8844Z" fill="white"/>
<path d="M226.962 92V51.7274H258.326V59.8429H237.457V68.0195H254.054V75.6469H237.457V83.8844H259.119V92H226.962Z" fill="white"/>
<path d="M87.3573 135.322C86.5437 137.762 85.3233 139.837 83.6962 141.546C82.069 143.213 80.1571 144.474 77.9604 145.329C75.7637 146.183 73.3433 146.61 70.6991 146.61C66.8346 146.61 63.4785 145.776 60.6309 144.108C57.7834 142.441 55.5867 140.061 54.0409 136.969C52.4951 133.878 51.7222 130.176 51.7222 125.864C51.7222 121.552 52.4951 117.85 54.0409 114.758C55.5867 111.667 57.7834 109.287 60.6309 107.619C63.4785 105.951 66.8142 105.117 70.6381 105.117C73.2822 105.117 75.662 105.483 77.7773 106.216C79.9333 106.948 81.7639 108.046 83.269 109.511C84.7742 110.975 85.9335 112.806 86.7471 115.002L80.5842 117.748C79.7706 115.348 78.5909 113.599 77.0451 112.5C75.4993 111.361 73.4856 110.792 71.0042 110.792C68.5227 110.792 66.3464 111.382 64.4752 112.562C62.6039 113.741 61.1394 115.45 60.0818 117.687C59.0648 119.924 58.5563 122.65 58.5563 125.864C58.5563 129.037 59.0445 131.762 60.0208 134.04C60.9971 136.278 62.4005 137.986 64.2311 139.166C66.0616 140.346 68.2583 140.935 70.8211 140.935C73.3026 140.935 75.4382 140.305 77.2281 139.044C79.0587 137.742 80.3604 135.81 81.1334 133.247L87.3573 135.322Z" fill="white"/>
<path d="M126.385 146H119.49L115.645 135.444H98.7431L94.8989 146H88.1868L103.381 105.727H111.191L126.385 146ZM100.574 130.135H113.815L107.225 111.341L100.574 130.135Z" fill="white"/>
<path d="M137.31 140.386H159.52V146H130.78V105.727H137.31V140.386Z" fill="white"/>
<path d="M196.57 135.322C195.756 137.762 194.536 139.837 192.908 141.546C191.281 143.213 189.369 144.474 187.173 145.329C184.976 146.183 182.555 146.61 179.911 146.61C176.047 146.61 172.691 145.776 169.843 144.108C166.996 142.441 164.799 140.061 163.253 136.969C161.707 133.878 160.934 130.176 160.934 125.864C160.934 121.552 161.707 117.85 163.253 114.758C164.799 111.667 166.996 109.287 169.843 107.619C172.691 105.951 176.026 105.117 179.85 105.117C182.494 105.117 184.874 105.483 186.99 106.216C189.146 106.948 190.976 108.046 192.481 109.511C193.986 110.975 195.146 112.806 195.959 115.002L189.796 117.748C188.983 115.348 187.803 113.599 186.257 112.5C184.711 111.361 182.698 110.792 180.216 110.792C177.735 110.792 175.559 111.382 173.687 112.562C171.816 113.741 170.352 115.45 169.294 117.687C168.277 119.924 167.769 122.65 167.769 125.864C167.769 129.037 168.257 131.762 169.233 134.04C170.209 136.278 171.613 137.986 173.443 139.166C175.274 140.346 177.471 140.935 180.033 140.935C182.515 140.935 184.65 140.305 186.44 139.044C188.271 137.742 189.573 135.81 190.346 133.247L196.57 135.322Z" fill="white"/>
<path d="M234.255 105.727V130.562C234.255 135.891 232.851 139.898 230.044 142.583C227.237 145.268 223.149 146.61 217.779 146.61C212.491 146.61 208.423 145.268 205.576 142.583C202.769 139.898 201.365 135.891 201.365 130.562V105.727H207.894V129.769C207.894 133.552 208.708 136.359 210.335 138.19C211.962 140.02 214.444 140.935 217.779 140.935C221.156 140.935 223.658 140.02 225.285 138.19C226.912 136.359 227.725 133.552 227.725 129.769V105.727H234.255Z" fill="white"/>
<path d="M249.203 140.386H271.414V146H242.674V105.727H249.203V140.386Z" fill="white"/>
<path d="M309.895 146H303L299.155 135.444H282.253L278.409 146H271.697L286.891 105.727H294.701L309.895 146ZM284.084 130.135H297.325L290.735 111.341L284.084 130.135Z" fill="white"/>
<path d="M338.888 105.727V111.341H325.098V146H318.569V111.341H304.778V105.727H338.888Z" fill="white"/>
<path d="M359.25 105.117C363.155 105.117 366.532 105.951 369.379 107.619C372.227 109.287 374.424 111.667 375.969 114.758C377.515 117.85 378.288 121.552 378.288 125.864C378.288 130.176 377.515 133.878 375.969 136.969C374.424 140.061 372.227 142.441 369.379 144.108C366.532 145.776 363.155 146.61 359.25 146.61C355.386 146.61 352.03 145.776 349.182 144.108C346.334 142.441 344.138 140.061 342.592 136.969C341.046 133.878 340.273 130.176 340.273 125.864C340.273 121.552 341.046 117.85 342.592 114.758C344.138 111.667 346.334 109.287 349.182 107.619C352.03 105.951 355.386 105.117 359.25 105.117ZM359.25 110.792C356.728 110.792 354.552 111.382 352.721 112.562C350.931 113.741 349.548 115.45 348.572 117.687C347.596 119.924 347.107 122.65 347.107 125.864C347.107 129.037 347.596 131.762 348.572 134.04C349.548 136.278 350.931 137.986 352.721 139.166C354.552 140.346 356.728 140.935 359.25 140.935C361.813 140.935 363.989 140.346 365.779 139.166C367.61 137.986 369.013 136.278 369.99 134.04C370.966 131.762 371.454 129.037 371.454 125.864C371.454 122.65 370.966 119.924 369.99 117.687C369.013 115.45 367.61 113.741 365.779 112.562C363.989 111.382 361.813 110.792 359.25 110.792Z" fill="white"/>
<path d="M401.666 105.727C405.978 105.727 409.395 106.805 411.917 108.961C414.48 111.117 415.761 114.026 415.761 117.687C415.761 121.47 414.48 124.399 411.917 126.474C409.395 128.508 405.978 129.525 401.666 129.525L401.055 129.891H391.72V146H385.251V105.727H401.666ZM401.177 124.46C403.822 124.46 405.774 123.931 407.035 122.874C408.337 121.775 408.988 120.108 408.988 117.87C408.988 115.673 408.337 114.026 407.035 112.928C405.774 111.829 403.822 111.28 401.177 111.28H391.72V124.46H401.177ZM405.022 125.803L418.141 146H410.635L399.408 128.365L405.022 125.803Z" fill="white"/>
<path d="M48 234C48 220.745 58.7452 210 72 210H196C209.255 210 220 220.745 220 234C220 247.255 209.255 258 196 258H72C58.7452 258 48 247.255 48 234Z" fill="white"/>
<path d="M106.449 228.12V230.118H102.471V240H99.9865V230.118H95.9905V228.12H106.449Z" fill="#172025"/>
<path d="M112.906 228.12C114.25 228.12 115.306 228.444 116.074 229.092C116.842 229.74 117.226 230.61 117.226 231.702C117.226 232.866 116.842 233.76 116.074 234.384C115.306 234.996 114.256 235.302 112.924 235.302L112.672 235.446H110.116V240H107.668V228.12H112.906ZM112.618 233.556C113.314 233.556 113.83 233.418 114.166 233.142C114.514 232.854 114.688 232.416 114.688 231.828C114.688 231.24 114.514 230.808 114.166 230.532C113.83 230.244 113.314 230.1 112.618 230.1H110.116V233.556H112.618ZM114.076 234.078L117.928 240H115.138L111.952 234.798L114.076 234.078Z" fill="#172025"/>
<path d="M128.017 228.12L123.805 235.554V240H121.321V235.554L117.109 228.12H119.755L121.663 231.684L122.563 233.538L123.481 231.684L125.389 228.12H128.017Z" fill="#172025"/>
<path d="M143.235 228.12V240H140.391L136.233 233.016L135.207 231.072H135.189L135.261 233.124V240H133.029V228.12H135.855L140.013 235.086L141.039 237.048H141.075L141.003 234.996V228.12H143.235Z" fill="#172025"/>
<path d="M150.656 227.94C151.832 227.94 152.846 228.186 153.698 228.678C154.55 229.17 155.204 229.872 155.66 230.784C156.128 231.696 156.362 232.788 156.362 234.06C156.362 235.332 156.128 236.424 155.66 237.336C155.204 238.248 154.55 238.95 153.698 239.442C152.846 239.934 151.832 240.18 150.656 240.18C149.48 240.18 148.46 239.934 147.596 239.442C146.744 238.95 146.084 238.248 145.616 237.336C145.16 236.424 144.932 235.332 144.932 234.06C144.932 232.788 145.16 231.696 145.616 230.784C146.084 229.872 146.744 229.17 147.596 228.678C148.46 228.186 149.48 227.94 150.656 227.94ZM150.656 229.974C149.984 229.974 149.414 230.13 148.946 230.442C148.478 230.754 148.118 231.216 147.866 231.828C147.626 232.428 147.506 233.172 147.506 234.06C147.506 234.936 147.626 235.68 147.866 236.292C148.118 236.904 148.478 237.366 148.946 237.678C149.414 237.99 149.984 238.146 150.656 238.146C151.316 238.146 151.88 237.99 152.348 237.678C152.816 237.366 153.17 236.904 153.41 236.292C153.662 235.68 153.788 234.936 153.788 234.06C153.788 233.172 153.662 232.428 153.41 231.828C153.17 231.216 152.816 230.754 152.348 230.442C151.88 230.13 151.316 229.974 150.656 229.974Z" fill="#172025"/>
<path d="M160.079 240L156.623 228.12H159.269L161.609 237.93L163.985 228.12H166.361L168.773 237.93L171.095 228.12H173.633L170.177 240H167.387L165.731 233.52L165.173 230.712H165.137L164.579 233.52L162.941 240H160.079Z" fill="#172025"/>
</svg>
