<svg width="32" height="32" viewBox="0 0 32 32" fill="none" xmlns="http://www.w3.org/2000/svg">
<path fill-rule="evenodd" clip-rule="evenodd" d="M10.597 23.8C9.11255 23.8 7.9115 24.97 7.9115 26.4C7.9115 27.83 9.11255 29 10.597 29C12.0815 29 13.296 27.83 13.296 26.4C13.296 24.97 12.0815 23.8 10.597 23.8ZM24.092 23.8C22.6075 23.8 21.4065 24.97 21.4065 26.4C21.4065 27.83 22.6075 29 24.092 29C25.5764 29 26.791 27.83 26.791 26.4C26.791 24.97 25.5764 23.8 24.092 23.8ZM22.1352 17.3C23.1473 17.3 24.038 16.767 24.4968 15.961L29.328 7.524C29.8274 6.666 29.1796 5.6 28.154 5.6H8.18139L6.91286 3H2.5V5.6H5.199L10.0572 15.467L8.23537 18.639C7.25024 20.381 8.54575 22.5 10.597 22.5H26.791V19.9H10.597L12.0814 17.3H22.1352ZM9.46341 8.2H25.8598L22.1352 14.7H12.6617L9.46341 8.2Z" fill="#64748B"/>
<path fill-rule="evenodd" clip-rule="evenodd" d="M12.316 15H22.1383L26 8H9L12.316 15Z" fill="#CBD5E1"/>
</svg>
