<svg width="32" height="32" viewBox="0 0 32 32" fill="none" xmlns="http://www.w3.org/2000/svg">
<path fill-rule="evenodd" clip-rule="evenodd" d="M6.66666 6.66667H12V14.6667H6.66666V6.66667ZM20 17.3333H25.3333V25.3333H20V17.3333ZM6.66666 22.6667H12V25.3333H6.66666V22.6667ZM20 6.66667H25.3333V9.33333H20V6.66667Z" fill="#CBD5E1"/>
<path fill-rule="evenodd" clip-rule="evenodd" d="M4 17.3333H14.6667V4H4V17.3333ZM6.66667 6.66667H12V14.6667H6.66667V6.66667ZM17.3333 28H28V14.6667H17.3333V28ZM20 17.3333H25.3333V25.3333H20V17.3333ZM17.3333 4V12H28V4H17.3333ZM25.3333 9.33333H20V6.66667H25.3333V9.33333ZM4 28H14.6667V20H4V28ZM6.66667 22.6667H12V25.3333H6.66667V22.6667Z" fill="#64748B"/>
</svg>
