<svg width="48" height="48" viewBox="0 0 48 48" fill="none" xmlns="http://www.w3.org/2000/svg">
<rect x="2.71698" y="26.6077" width="30.2532" height="30.2532" transform="rotate(-45 2.71698 26.6077)" fill="black"/>
<rect x="2.064" y="21.8771" width="30.72" height="30.72" transform="rotate(-45 2.064 21.8771)" fill="black"/>
<rect x="2.39999" y="21.8771" width="30.2532" height="30.2532" transform="rotate(-45 2.39999 21.8771)" fill="white"/>
<path d="M21.5216 17.1368L21.5211 17.1375C21.272 17.5464 20.9679 17.8331 20.61 18.0026C20.2501 18.1731 19.781 18.2605 19.1988 18.2605H18.8883V12.9404H20.0523C21.1124 12.9404 21.83 12.9897 22.2127 13.0854L22.2128 13.0854C22.9154 13.2594 23.4436 13.5574 23.8041 13.9749L23.8045 13.9754C24.1698 14.391 24.4025 15.0377 24.4933 15.9266L24.4999 15.9914H24.5651H24.9673H25.0394V15.9193V12.103V12.0309H24.9673H13.7442H13.6721V12.103V12.466V12.5381H13.7442H14.1857C14.5512 12.5381 14.8308 12.6024 15.0312 12.7239L15.0312 12.7239L15.0334 12.7252C15.247 12.8446 15.38 12.9812 15.4437 13.1318C15.4748 13.2053 15.5012 13.3439 15.5192 13.5562C15.5369 13.7659 15.5459 14.04 15.5459 14.3791V23.1299C15.5459 23.4625 15.5369 23.7299 15.5192 23.933C15.5012 24.1391 15.4748 24.27 15.4445 24.336L15.4445 24.336L15.4434 24.3386C15.3566 24.5494 15.2355 24.6916 15.0835 24.7734L15.0834 24.7734L15.0813 24.7746C14.8606 24.9034 14.5638 24.9708 14.1857 24.9708H13.7442H13.6721V25.0429V25.4059V25.478H13.7442H20.6998H20.7719V25.4059V25.0429V24.9708H20.6998H20.2583C19.8932 24.9708 19.6095 24.9099 19.4018 24.7942C19.1952 24.6688 19.0608 24.5286 18.9901 24.3761C18.9592 24.3024 18.9329 24.1641 18.915 23.9528C18.8973 23.7431 18.8883 23.469 18.8883 23.1299V19.1307H19.1988C19.8836 19.1307 20.4931 19.3288 21.0297 19.7249L21.0305 19.7254C21.5598 20.1053 21.8973 20.9079 22.0211 22.1658L22.0275 22.2308H22.0928H22.4362H22.5083V22.1587V15.4778V15.4057H22.4362H22.0928H22.0282L22.0212 15.4699C21.9434 16.1766 21.7754 16.7306 21.5216 17.1368ZM34.4674 19.4905V19.4184H34.3953H34.0127H33.9498L33.9413 19.4807C33.8966 19.8063 33.799 20.0339 33.6576 20.1753C33.5205 20.3125 33.3588 20.3798 33.169 20.3798C33.0993 20.3798 32.9722 20.3537 32.7806 20.2947C32.5918 20.2366 32.3475 20.149 32.0475 20.0316L32.0474 20.0316C31.0007 19.6234 30.0042 19.4184 29.0585 19.4184C27.7772 19.4184 26.565 19.7356 25.4231 20.3693L25.4229 20.3694C24.2865 21.0036 23.3812 21.8958 22.7078 23.0447L22.7077 23.0449C22.0409 24.1935 21.7071 25.4093 21.7071 26.6913C21.7071 27.9072 22.0079 29.0541 22.6089 30.1307L22.6091 30.131C23.2178 31.2094 24.0784 32.0368 25.1895 32.6122L25.1896 32.6123C26.3065 33.1872 27.5803 33.4738 29.0094 33.4738C30.0962 33.4738 31.0481 33.2992 31.8633 32.9479L31.8636 32.9478C32.685 32.5901 33.471 32.0181 34.2218 31.2344L34.2418 31.2135V31.1845V30.0367V29.8425L34.115 29.9896C33.3466 30.8818 32.6177 31.5057 31.9289 31.8662L31.9287 31.8663C31.2465 32.2267 30.4929 32.4074 29.6667 32.4074C28.6583 32.4074 27.8445 32.1619 27.2192 31.677C26.5925 31.1845 26.1287 30.4594 25.8311 29.4956C25.5327 28.5224 25.383 27.444 25.383 26.2597C25.383 25.058 25.5876 23.9689 25.9955 22.9912L25.9956 22.9911C26.3107 22.2322 26.8086 21.6186 27.4905 21.149C28.1719 20.6797 28.9196 20.4456 29.7354 20.4456C30.7125 20.4456 31.586 20.7601 32.3582 21.3907C33.1283 22.0196 33.6577 22.9266 33.9426 24.1182L33.9558 24.1735H34.0127H34.3953H34.4674V24.1014V19.4905Z" fill="#BF1901" stroke="black" stroke-width="0.144218"/>
</svg>
