<svg width="32" height="32" viewBox="0 0 32 32" fill="none" xmlns="http://www.w3.org/2000/svg">
<path fill-rule="evenodd" clip-rule="evenodd" d="M16 13.15C14.2603 13.15 12.85 11.7397 12.85 9.99999C12.85 8.2603 14.2603 6.84999 16 6.84999C17.7397 6.84999 19.15 8.2603 19.15 9.99999C19.15 11.7397 17.7397 13.15 16 13.15ZM16 20.35C20.455 20.35 25.15 22.54 25.15 23.5V25.15H6.85001V23.5C6.85001 22.54 11.545 20.35 16 20.35Z" fill="#CBD5E1"/>
<path fill-rule="evenodd" clip-rule="evenodd" d="M16 17.5C11.995 17.5 4 19.51 4 23.5V28H28V23.5C28 19.51 20.005 17.5 16 17.5ZM25.15 25.15H6.85V23.5C6.85 22.54 11.545 20.35 16 20.35C20.455 20.35 25.15 22.54 25.15 23.5V25.15ZM16 16C19.315 16 22 13.315 22 9.99999C22 6.68498 19.315 3.99998 16 3.99998C12.685 3.99998 10 6.68498 10 9.99999C10 13.315 12.685 16 16 16ZM16 6.84998C17.74 6.84998 19.15 8.25998 19.15 9.99998C19.15 11.74 17.74 13.15 16 13.15C14.26 13.15 12.85 11.74 12.85 9.99998C12.85 8.25998 14.26 6.84998 16 6.84998Z" fill="#64748B"/>
</svg>
