<svg width="40" height="40" viewBox="0 0 40 40" fill="none" xmlns="http://www.w3.org/2000/svg">
<rect width="40" height="40" rx="20" fill="#0284C7"/>
<path d="M10.9346 21.6156V19.7335H13.8288C14.4206 19.7335 14.8764 19.5855 15.196 19.2896C15.5274 18.9819 15.6931 18.5616 15.6931 18.029C15.6931 17.5436 15.5274 17.1412 15.196 16.8216C14.8764 16.4901 14.4206 16.3244 13.8288 16.3244H10.9346V14.3535H14.0418C14.8468 14.3535 15.5511 14.5133 16.1548 14.8329C16.7703 15.1407 17.2438 15.5668 17.5752 16.1113C17.9185 16.6558 18.0902 17.2832 18.0902 17.9934C18.0902 18.7274 17.9185 19.3666 17.5752 19.9111C17.2438 20.4437 16.7703 20.864 16.1548 21.1717C15.5393 21.4677 14.8231 21.6156 14.0063 21.6156H10.9346ZM9.15901 26.8358V14.3535H11.5738V26.8358H9.15901ZM15.9772 26.8358L11.8579 21.4381L14.0774 20.7456L18.9069 26.8358H15.9772ZM20.2737 26.8358V14.3535H21.9605L22.6885 16.7683V26.8358H20.2737ZM28.903 26.8358L21.4988 17.2477L21.9605 14.3535L29.3646 23.9416L28.903 26.8358ZM28.903 26.8358L28.2105 24.4921V14.3535H30.6431V26.8358H28.903Z" fill="white"/>
</svg>
